# xmcd CD database file
#
# Track frame offsets:
#	150
#	21097
#	30550
#	47667
#	58100
#	74207
#	81365
#	98090
#	113885
#	123370
#	140567
#	158587
#	175110
#	187807
#	198532
#	209632
#	225347
#
# Disc length: 3267 seconds
#
# Revision: 0
# Processed by: cddbd v1.5.2PL0 Copyright (c) Steve Scherf et al.
# Submitted via: CDex 2.12
#
DISCID=ec0cc111
DTITLE=Heritage of the Celts - The musical Heartbeat of a People
DYEAR=1995
DGENRE=Celtique
TTITLE0=King of the Fairies (Waxie Dargle)
TTITLE1=Kid of the Mountain (The Crickard Brothers)
TTITLE2=Meddley - Tipping it up to Nancy - Sawallow's Tail (Waxie Dargle)
TTITLE3=Banna Strand (Soazig)
TTITLE4=Childhood Days (Kim Skovbye)
TTITLE5=Brezhoneg (Soazig)
TTITLE6=Coming Around (Waxie Dargle)
TTITLE7=Madley - Geese in the Bog - The Wind that shakes the Barley (Waxie Dargle)
TTITLE8=Medley - The high Road to Linton - Mrs McLeod's Reel (The Crickard Brothers)
TTITLE9=The Orphan (Kate Northrop)
TTITLE10=Folk Selection Medley - The As in the Graveyard - The Hen and the Turkey - MaArthur Road - The Steam Packet (The Auld Town Pipe Band)
TTITLE11=The Mist Cover Mountains of Home (The Gordon Patullo Band)
TTITLE12=The Ferry Man (Waxie Dargle)
TTITLE13=The Pinch of Snuff (The Crickard Brothers)
TTITLE14=The Shallow Tail Reel (Kate Northrop)
TTITLE15=Come all ye young and tender Maidens (Waxie Dargle)
TTITLE16=Air (For Ireland) (Kim Skovbye)
EXTD=YEAR: 1995
EXTT0=
EXTT1=
EXTT2=
EXTT3=
EXTT4=
EXTT5=
EXTT6=
EXTT7=
EXTT8=
EXTT9=
EXTT10=
EXTT11=
EXTT12=
EXTT13=
EXTT14=
EXTT15=
EXTT16=
PLAYORDER=
